<svg width="545" height="178" xmlns="http://www.w3.org/2000/svg" xmlns:xlink="http://www.w3.org/1999/xlink" xml:space="preserve" overflow="hidden"><defs><filter id="fx0" x="-10%" y="-10%" width="120%" height="120%" filterUnits="userSpaceOnUse" primitiveUnits="userSpaceOnUse"><feComponentTransfer color-interpolation-filters="sRGB"><feFuncR type="discrete" tableValues="0 0"/><feFuncG type="discrete" tableValues="0 0"/><feFuncB type="discrete" tableValues="0 0"/><feFuncA type="linear" slope="0.4" intercept="0"/></feComponentTransfer><feGaussianBlur stdDeviation="0.669874 0.669874"/></filter><filter id="fx1" x="-10%" y="-10%" width="120%" height="120%" filterUnits="userSpaceOnUse" primitiveUnits="userSpaceOnUse"><feComponentTransfer color-interpolation-filters="sRGB"><feFuncR type="discrete" tableValues="0 0"/><feFuncG type="discrete" tableValues="0 0"/><feFuncB type="discrete" tableValues="0 0"/><feFuncA type="linear" slope="0.4" intercept="0"/></feComponentTransfer><feGaussianBlur stdDeviation="0.669874 0.669874"/></filter><filter id="fx2" x="-10%" y="-10%" width="120%" height="120%" filterUnits="userSpaceOnUse" primitiveUnits="userSpaceOnUse"><feComponentTransfer color-interpolation-filters="sRGB"><feFuncR type="discrete" tableValues="0 0"/><feFuncG type="discrete" tableValues="0 0"/><feFuncB type="discrete" tableValues="0 0"/><feFuncA type="linear" slope="0.4" intercept="0"/></feComponentTransfer><feGaussianBlur stdDeviation="0.669874 0.669874"/></filter><filter id="fx3" x="-10%" y="-10%" width="120%" height="120%" filterUnits="userSpaceOnUse" primitiveUnits="userSpaceOnUse"><feComponentTransfer color-interpolation-filters="sRGB"><feFuncR type="discrete" tableValues="0 0"/><feFuncG type="discrete" tableValues="0 0"/><feFuncB type="discrete" tableValues="0 0"/><feFuncA type="linear" slope="0.4" intercept="0"/></feComponentTransfer><feGaussianBlur stdDeviation="0.669874 0.669874"/></filter><clipPath id="clip4"><rect x="357" y="108" width="545" height="178"/></clipPath><clipPath id="clip5"><rect x="20" y="21" width="28" height="27"/></clipPath><clipPath id="clip6"><rect x="21" y="28" width="87" height="27"/></clipPath><clipPath id="clip7"><rect x="21" y="27" width="87" height="27"/></clipPath><clipPath id="clip8"><rect x="21" y="28" width="87" height="27"/></clipPath></defs><g clip-path="url(#clip4)" transform="translate(-357 -108)"><rect x="368" y="212" width="455" height="55" stroke="#BFBFBF" stroke-width="2" stroke-miterlimit="8" fill="#BFBFBF"/><path d="M596 186 596 267.371" stroke="#000000" stroke-width="2" stroke-miterlimit="8" stroke-dasharray="2 2" fill="none" fill-rule="evenodd"/><path d="M595 258 815.783 258 815.783 260 595 260ZM814.449 255 822.449 259 814.449 263Z"/><g clip-path="url(#clip5)" filter="url(#fx0)" transform="translate(815 213)"><g><path d="M21.625 0 15.9688 0 8.79688-9.90625C8.26562-9.88542 7.83333-9.875 7.5-9.875 7.36458-9.875 7.21875-9.8776 7.0625-9.88281 6.90625-9.88802 6.74479-9.89583 6.57812-9.90625L6.57812-3.75C6.57812-2.41667 6.72396-1.58854 7.01562-1.26562 7.41146-0.807292 8.00521-0.578125 8.79688-0.578125L9.625-0.578125 9.625 0 0.546875 0 0.546875-0.578125 1.34375-0.578125C2.23958-0.578125 2.88021-0.869792 3.26562-1.45312 3.48438-1.77604 3.59375-2.54167 3.59375-3.75L3.59375-17.4375C3.59375-18.7708 3.44792-19.599 3.15625-19.9219 2.75-20.3802 2.14583-20.6094 1.34375-20.6094L0.546875-20.6094 0.546875-21.1875 8.26562-21.1875C10.5156-21.1875 12.1745-21.0234 13.2422-20.6953 14.3099-20.3672 15.2161-19.763 15.9609-18.8828 16.7057-18.0026 17.0781-16.9531 17.0781-15.7344 17.0781-14.4323 16.6536-13.3021 15.8047-12.3438 14.9557-11.3854 13.6406-10.7083 11.8594-10.3125L16.2344-4.23438C17.2344-2.83854 18.0938-1.91146 18.8125-1.45312 19.5312-0.994792 20.4688-0.703125 21.625-0.578125ZM6.57812-10.8906C6.77604-10.8906 6.94792-10.888 7.09375-10.8828 7.23958-10.8776 7.35937-10.875 7.45312-10.875 9.47396-10.875 10.9974-11.3125 12.0234-12.1875 13.0495-13.0625 13.5625-14.1771 13.5625-15.5312 13.5625-16.8542 13.1484-17.9297 12.3203-18.7578 11.4922-19.5859 10.3958-20 9.03125-20 8.42708-20 7.60938-19.901 6.57812-19.7031Z" transform="translate(23.1877 45)"/></g></g><text font-family="Times New Roman,Times New Roman_MSFontService,Arial" font-weight="400" font-size="32" transform="translate(837.399 257)">R</text><path d="M369 202.585C373.614 204.675 378.228 206.766 392.254 205.502 406.28 204.238 434.332 194.903 453.156 195.001 471.98 195.098 486.745 205.599 505.2 206.085 523.655 206.572 547.463 197.82 563.888 197.918 580.313 198.015 584.558 206.669 603.751 206.669 622.945 206.669 655.241 197.723 679.049 197.918 702.856 198.112 722.603 206.96 746.595 207.836 770.587 208.711 796.793 205.939 823 203.168" stroke="#FF0000" stroke-width="8" stroke-linecap="square" stroke-miterlimit="8" stroke-dasharray="24 8" fill="none" fill-rule="evenodd"/><path d="M0.67052-0.741892 17.8607 14.7946 16.5197 16.2784-0.67052 0.741892ZM18.8831 11.6749 22.1362 20.0066 13.519 17.61Z" transform="matrix(-1 0 0 1 836.136 155)"/><g clip-path="url(#clip6)" filter="url(#fx1)" transform="translate(774 106)"><g><path d="M10.25-14.7344 10.25-9.85938 9.73438-9.85938C9.33854-11.3906 8.83073-12.4323 8.21094-12.9844 7.59115-13.5365 6.80208-13.8125 5.84375-13.8125 5.11458-13.8125 4.52604-13.6198 4.07812-13.2344 3.63021-12.849 3.40625-12.4219 3.40625-11.9531 3.40625-11.3698 3.57292-10.8698 3.90625-10.4531 4.22917-10.026 4.88542-9.57292 5.875-9.09375L8.15625-7.98438C10.2708-6.95312 11.3281-5.59375 11.3281-3.90625 11.3281-2.60417 10.8359-1.55469 9.85156-0.757812 8.86719 0.0390625 7.76562 0.4375 6.54688 0.4375 5.67188 0.4375 4.67188 0.28125 3.54688-0.03125 3.20312-0.135417 2.92188-0.1875 2.70312-0.1875 2.46354-0.1875 2.27604-0.0520833 2.14062 0.21875L1.625 0.21875 1.625-4.89062 2.14062-4.89062C2.43229-3.43229 2.98958-2.33333 3.8125-1.59375 4.63542-0.854167 5.55729-0.484375 6.57812-0.484375 7.29688-0.484375 7.88281-0.695312 8.33594-1.11719 8.78906-1.53906 9.01562-2.04688 9.01562-2.64062 9.01562-3.35938 8.76302-3.96354 8.25781-4.45312 7.7526-4.94271 6.74479-5.5625 5.23438-6.3125 3.72396-7.0625 2.73438-7.73958 2.26562-8.34375 1.79688-8.9375 1.5625-9.6875 1.5625-10.5938 1.5625-11.7708 1.96615-12.7552 2.77344-13.5469 3.58073-14.3385 4.625-14.7344 5.90625-14.7344 6.46875-14.7344 7.15104-14.6146 7.95312-14.375 8.48438-14.2188 8.83854-14.1406 9.01562-14.1406 9.18229-14.1406 9.3125-14.1771 9.40625-14.25 9.5-14.3229 9.60938-14.4844 9.73438-14.7344ZM12.4688-12.8906 16.875-14.6719 17.4688-14.6719 17.4688-11.3281C18.2083-12.5885 18.9505-13.4714 19.6953-13.9766 20.4401-14.4818 21.224-14.7344 22.0469-14.7344 23.4844-14.7344 24.6823-14.1719 25.6406-13.0469 26.8177-11.6719 27.4062-9.88021 27.4062-7.67188 27.4062-5.20312 26.6979-3.16146 25.2812-1.54688 24.1146-0.223958 22.6458 0.4375 20.875 0.4375 20.1042 0.4375 19.4375 0.328125 18.875 0.109375 18.4583-0.046875 17.9896-0.359375 17.4688-0.828125L17.4688 3.53125C17.4688 4.51042 17.5286 5.13281 17.6484 5.39844 17.7682 5.66406 17.9766 5.875 18.2734 6.03125 18.5703 6.1875 19.1094 6.26562 19.8906 6.26562L19.8906 6.84375 12.3906 6.84375 12.3906 6.26562 12.7812 6.26562C13.3542 6.27604 13.8437 6.16667 14.25 5.9375 14.4479 5.82292 14.6016 5.63802 14.7109 5.38281 14.8203 5.1276 14.875 4.47917 14.875 3.4375L14.875-10.0938C14.875-11.0208 14.8333-11.6094 14.75-11.8594 14.6667-12.1094 14.5339-12.2969 14.3516-12.4219 14.1693-12.5469 13.9219-12.6094 13.6094-12.6094 13.3594-12.6094 13.0417-12.5365 12.6562-12.3906ZM17.4688-10.4062 17.4688-5.0625C17.4688-3.90625 17.5156-3.14583 17.6094-2.78125 17.7552-2.17708 18.112-1.64583 18.6797-1.1875 19.2474-0.729167 19.9635-0.5 20.8281-0.5 21.8698-0.5 22.7135-0.90625 23.3594-1.71875 24.2031-2.78125 24.625-4.27604 24.625-6.20312 24.625-8.39062 24.1458-10.0729 23.1875-11.25 22.5208-12.0625 21.7292-12.4687 20.8125-12.4688 20.3125-12.4687 19.8177-12.3437 19.3281-12.0938 18.9531-11.9062 18.3333-11.3438 17.4688-10.4062ZM37.6094-2.0625C36.1406-0.927083 35.2188-0.270833 34.8438-0.09375 34.2812 0.166667 33.6823 0.296875 33.0469 0.296875 32.0573 0.296875 31.2422-0.0416667 30.6016-0.71875 29.9609-1.39583 29.6406-2.28646 29.6406-3.39062 29.6406-4.08854 29.7969-4.69271 30.1094-5.20312 30.5365-5.91146 31.2786-6.57812 32.3359-7.20312 33.3932-7.82812 35.151-8.58854 37.6094-9.48438L37.6094-10.0469C37.6094-11.474 37.3828-12.4531 36.9297-12.9844 36.4766-13.5156 35.8177-13.7812 34.9531-13.7812 34.2969-13.7812 33.776-13.6042 33.3906-13.25 32.9948-12.8958 32.7969-12.4896 32.7969-12.0312L32.8281-11.125C32.8281-10.6458 32.7057-10.276 32.4609-10.0156 32.2161-9.75521 31.8958-9.625 31.5-9.625 31.1146-9.625 30.7995-9.76042 30.5547-10.0312 30.3099-10.3021 30.1875-10.6719 30.1875-11.1406 30.1875-12.0365 30.6458-12.8594 31.5625-13.6094 32.4792-14.3594 33.7656-14.7344 35.4219-14.7344 36.6927-14.7344 37.7344-14.5208 38.5469-14.0938 39.1615-13.7708 39.6146-13.2656 39.9062-12.5781 40.0938-12.1302 40.1875-11.2135 40.1875-9.82812L40.1875-4.96875C40.1875-3.60417 40.2135-2.76823 40.2656-2.46094 40.3177-2.15365 40.4036-1.94792 40.5234-1.84375 40.6432-1.73958 40.7812-1.6875 40.9375-1.6875 41.1042-1.6875 41.25-1.72396 41.375-1.79688 41.5938-1.93229 42.0156-2.3125 42.6406-2.9375L42.6406-2.0625C41.474-0.5 40.3594 0.28125 39.2969 0.28125 38.7865 0.28125 38.3802 0.104167 38.0781-0.25 37.776-0.604167 37.6198-1.20833 37.6094-2.0625ZM37.6094-3.07812 37.6094-8.53125C36.0365-7.90625 35.0208-7.46354 34.5625-7.20312 33.7396-6.74479 33.151-6.26562 32.7969-5.76562 32.4427-5.26562 32.2656-4.71875 32.2656-4.125 32.2656-3.375 32.4896-2.7526 32.9375-2.25781 33.3854-1.76302 33.901-1.51562 34.4844-1.51562 35.276-1.51562 36.3177-2.03646 37.6094-3.07812ZM55.8229-5.4375C55.4375-3.55208 54.6823-2.10156 53.5573-1.08594 52.4323-0.0703125 51.1875 0.4375 49.8229 0.4375 48.1979 0.4375 46.7812-0.244792 45.5729-1.60938 44.3646-2.97396 43.7604-4.81771 43.7604-7.14062 43.7604-9.39062 44.4297-11.2188 45.7682-12.625 47.1068-14.0312 48.7135-14.7344 50.5885-14.7344 51.9948-14.7344 53.151-14.362 54.0573-13.6172 54.9635-12.8724 55.4167-12.099 55.4167-11.2969 55.4167-10.901 55.2891-10.5807 55.0339-10.3359 54.7786-10.0911 54.4219-9.96875 53.9635-9.96875 53.349-9.96875 52.8854-10.1667 52.5729-10.5625 52.3958-10.7812 52.2786-11.1979 52.2214-11.8125 52.1641-12.4271 51.9531-12.8958 51.5885-13.2188 51.224-13.5312 50.7188-13.6875 50.0729-13.6875 49.0312-13.6875 48.1927-13.3021 47.5573-12.5312 46.7135-11.5104 46.2917-10.1615 46.2917-8.48438 46.2917-6.77604 46.7109-5.26823 47.5495-3.96094 48.388-2.65365 49.5208-2 50.9479-2 51.9688-2 52.8854-2.34896 53.6979-3.04688 54.2708-3.52604 54.8281-4.39583 55.3698-5.65625ZM60.2396-8.92188C60.2292-6.79688 60.7448-5.13021 61.7865-3.92188 62.8281-2.71354 64.0521-2.10938 65.4583-2.10938 66.3958-2.10938 67.2109-2.36719 67.9036-2.88281 68.5964-3.39844 69.1771-4.28125 69.6458-5.53125L70.1302-5.21875C69.9115-3.79167 69.276-2.49219 68.224-1.32031 67.1719-0.148438 65.8542 0.4375 64.2708 0.4375 62.5521 0.4375 61.0807-0.231771 59.8568-1.57031 58.6328-2.90885 58.0208-4.70833 58.0208-6.96875 58.0208-9.41667 58.6484-11.3255 59.9036-12.6953 61.1589-14.0651 62.7344-14.75 64.6302-14.75 66.2344-14.75 67.5521-14.2214 68.5833-13.1641 69.6146-12.1068 70.1302-10.6927 70.1302-8.92188ZM60.2396-9.82812 66.8646-9.82812C66.8125-10.7448 66.7031-11.3906 66.5365-11.7656 66.276-12.349 65.888-12.8073 65.3724-13.1406 64.8568-13.474 64.3177-13.6406 63.7552-13.6406 62.8906-13.6406 62.1172-13.3047 61.4349-12.6328 60.7526-11.9609 60.3542-11.026 60.2396-9.82812ZM76.1875-14.7344 76.1875-11.5156C77.3854-13.6615 78.6146-14.7344 79.875-14.7344 80.4479-14.7344 80.9219-14.5599 81.2969-14.2109 81.6719-13.862 81.8594-13.4583 81.8594-13 81.8594-12.5938 81.724-12.25 81.4531-11.9688 81.1823-11.6875 80.8594-11.5469 80.4844-11.5469 80.1198-11.5469 79.7109-11.7266 79.2578-12.0859 78.8047-12.4453 78.4688-12.625 78.25-12.625 78.0625-12.625 77.8594-12.5208 77.6406-12.3125 77.1719-11.8854 76.6875-11.1823 76.1875-10.2031L76.1875-3.34375C76.1875-2.55208 76.2865-1.95312 76.4844-1.54688 76.6198-1.26562 76.8594-1.03125 77.2031-0.84375 77.5469-0.65625 78.0417-0.5625 78.6875-0.5625L78.6875 0 71.3594 0 71.3594-0.5625C72.0885-0.5625 72.6302-0.677083 72.9844-0.90625 73.2448-1.07292 73.4271-1.33854 73.5312-1.70312 73.5833-1.88021 73.6094-2.38542 73.6094-3.21875L73.6094-8.76562C73.6094-10.4323 73.5755-11.4245 73.5078-11.7422 73.4401-12.0599 73.3151-12.2917 73.1328-12.4375 72.9505-12.5833 72.724-12.6562 72.4531-12.6562 72.1302-12.6562 71.7656-12.5781 71.3594-12.4219L71.2031-12.9844 75.5312-14.7344Z" transform="translate(23.3426 45)"/></g></g><text font-family="Times New Roman,Times New Roman_MSFontService,Arial" font-weight="400" font-size="32" transform="translate(796.554 150)">spacer</text><path d="M579 192.699C579 194.742 586.611 196.398 596 196.398 605.389 196.398 613 194.742 613 192.699L613 205.301C613 207.344 605.389 209 596 209 586.611 209 579 207.344 579 205.301Z" fill="#D86ECC" fill-rule="evenodd"/><path d="M579 192.699C579 190.656 586.611 189 596 189 605.389 189 613 190.656 613 192.699 613 194.742 605.389 196.398 596 196.398 586.611 196.398 579 194.742 579 192.699Z" fill="#E8A8E0" fill-rule="evenodd"/><path d="M613 192.699C613 194.742 605.389 196.398 596 196.398 586.611 196.398 579 194.742 579 192.699 579 190.656 586.611 189 596 189 605.389 189 613 190.656 613 192.699L613 205.301C613 207.344 605.389 209 596 209 586.611 209 579 207.344 579 205.301L579 192.699" stroke="#D86ECC" stroke-width="2" stroke-miterlimit="8" fill="none" fill-rule="evenodd"/><path d="M786 193.699C786 195.742 793.835 197.398 803.5 197.398 813.165 197.398 821 195.742 821 193.699L821 206.301C821 208.344 813.165 210 803.5 210 793.835 210 786 208.344 786 206.301Z" fill="#D86ECC" fill-rule="evenodd"/><path d="M786 193.699C786 191.656 793.835 190 803.5 190 813.165 190 821 191.656 821 193.699 821 195.742 813.165 197.398 803.5 197.398 793.835 197.398 786 195.742 786 193.699Z" fill="#E8A8E0" fill-rule="evenodd"/><path d="M821 193.699C821 195.742 813.165 197.398 803.5 197.398 793.835 197.398 786 195.742 786 193.699 786 191.656 793.835 190 803.5 190 813.165 190 821 191.656 821 193.699L821 206.301C821 208.344 813.165 210 803.5 210 793.835 210 786 208.344 786 206.301L786 193.699" stroke="#D86ECC" stroke-width="2" stroke-miterlimit="8" fill="none" fill-rule="evenodd"/><path d="M367 191.699C367 193.742 374.835 195.398 384.5 195.398 394.165 195.398 402 193.742 402 191.699L402 204.301C402 206.344 394.165 208 384.5 208 374.835 208 367 206.344 367 204.301Z" fill="#D86ECC" fill-rule="evenodd"/><path d="M367 191.699C367 189.656 374.835 188 384.5 188 394.165 188 402 189.656 402 191.699 402 193.742 394.165 195.398 384.5 195.398 374.835 195.398 367 193.742 367 191.699Z" fill="#E8A8E0" fill-rule="evenodd"/><path d="M402 191.699C402 193.742 394.165 195.398 384.5 195.398 374.835 195.398 367 193.742 367 191.699 367 189.656 374.835 188 384.5 188 394.165 188 402 189.656 402 191.699L402 204.301C402 206.344 394.165 208 384.5 208 374.835 208 367 206.344 367 204.301L367 191.699" stroke="#D86ECC" stroke-width="2" stroke-miterlimit="8" fill="none" fill-rule="evenodd"/><path d="M0.67052-0.741892 17.8607 14.7946 16.5197 16.2784-0.67052 0.741892ZM18.8831 11.6749 22.1362 20.0066 13.519 17.61Z" transform="matrix(-1 0 0 1 644.136 158)"/><g clip-path="url(#clip7)" filter="url(#fx2)" transform="translate(583 110)"><g><path d="M10.25-14.7344 10.25-9.85938 9.73438-9.85938C9.33854-11.3906 8.83073-12.4323 8.21094-12.9844 7.59115-13.5365 6.80208-13.8125 5.84375-13.8125 5.11458-13.8125 4.52604-13.6198 4.07812-13.2344 3.63021-12.849 3.40625-12.4219 3.40625-11.9531 3.40625-11.3698 3.57292-10.8698 3.90625-10.4531 4.22917-10.026 4.88542-9.57292 5.875-9.09375L8.15625-7.98438C10.2708-6.95312 11.3281-5.59375 11.3281-3.90625 11.3281-2.60417 10.8359-1.55469 9.85156-0.757812 8.86719 0.0390625 7.76562 0.4375 6.54688 0.4375 5.67188 0.4375 4.67188 0.28125 3.54688-0.03125 3.20312-0.135417 2.92188-0.1875 2.70312-0.1875 2.46354-0.1875 2.27604-0.0520833 2.14062 0.21875L1.625 0.21875 1.625-4.89062 2.14062-4.89062C2.43229-3.43229 2.98958-2.33333 3.8125-1.59375 4.63542-0.854167 5.55729-0.484375 6.57812-0.484375 7.29688-0.484375 7.88281-0.695312 8.33594-1.11719 8.78906-1.53906 9.01562-2.04688 9.01562-2.64062 9.01562-3.35938 8.76302-3.96354 8.25781-4.45312 7.7526-4.94271 6.74479-5.5625 5.23438-6.3125 3.72396-7.0625 2.73438-7.73958 2.26562-8.34375 1.79688-8.9375 1.5625-9.6875 1.5625-10.5938 1.5625-11.7708 1.96615-12.7552 2.77344-13.5469 3.58073-14.3385 4.625-14.7344 5.90625-14.7344 6.46875-14.7344 7.15104-14.6146 7.95312-14.375 8.48438-14.2188 8.83854-14.1406 9.01562-14.1406 9.18229-14.1406 9.3125-14.1771 9.40625-14.25 9.5-14.3229 9.60938-14.4844 9.73438-14.7344ZM12.4688-12.8906 16.875-14.6719 17.4688-14.6719 17.4688-11.3281C18.2083-12.5885 18.9505-13.4714 19.6953-13.9766 20.4401-14.4818 21.224-14.7344 22.0469-14.7344 23.4844-14.7344 24.6823-14.1719 25.6406-13.0469 26.8177-11.6719 27.4062-9.88021 27.4062-7.67188 27.4062-5.20312 26.6979-3.16146 25.2812-1.54688 24.1146-0.223958 22.6458 0.4375 20.875 0.4375 20.1042 0.4375 19.4375 0.328125 18.875 0.109375 18.4583-0.046875 17.9896-0.359375 17.4688-0.828125L17.4688 3.53125C17.4688 4.51042 17.5286 5.13281 17.6484 5.39844 17.7682 5.66406 17.9766 5.875 18.2734 6.03125 18.5703 6.1875 19.1094 6.26562 19.8906 6.26562L19.8906 6.84375 12.3906 6.84375 12.3906 6.26562 12.7812 6.26562C13.3542 6.27604 13.8437 6.16667 14.25 5.9375 14.4479 5.82292 14.6016 5.63802 14.7109 5.38281 14.8203 5.1276 14.875 4.47917 14.875 3.4375L14.875-10.0938C14.875-11.0208 14.8333-11.6094 14.75-11.8594 14.6667-12.1094 14.5339-12.2969 14.3516-12.4219 14.1693-12.5469 13.9219-12.6094 13.6094-12.6094 13.3594-12.6094 13.0417-12.5365 12.6562-12.3906ZM17.4688-10.4062 17.4688-5.0625C17.4688-3.90625 17.5156-3.14583 17.6094-2.78125 17.7552-2.17708 18.112-1.64583 18.6797-1.1875 19.2474-0.729167 19.9635-0.5 20.8281-0.5 21.8698-0.5 22.7135-0.90625 23.3594-1.71875 24.2031-2.78125 24.625-4.27604 24.625-6.20312 24.625-8.39062 24.1458-10.0729 23.1875-11.25 22.5208-12.0625 21.7292-12.4687 20.8125-12.4688 20.3125-12.4687 19.8177-12.3437 19.3281-12.0938 18.9531-11.9062 18.3333-11.3438 17.4688-10.4062ZM37.6094-2.0625C36.1406-0.927083 35.2188-0.270833 34.8438-0.09375 34.2812 0.166667 33.6823 0.296875 33.0469 0.296875 32.0573 0.296875 31.2422-0.0416667 30.6016-0.71875 29.9609-1.39583 29.6406-2.28646 29.6406-3.39062 29.6406-4.08854 29.7969-4.69271 30.1094-5.20312 30.5365-5.91146 31.2786-6.57812 32.3359-7.20312 33.3932-7.82812 35.151-8.58854 37.6094-9.48438L37.6094-10.0469C37.6094-11.474 37.3828-12.4531 36.9297-12.9844 36.4766-13.5156 35.8177-13.7812 34.9531-13.7812 34.2969-13.7812 33.776-13.6042 33.3906-13.25 32.9948-12.8958 32.7969-12.4896 32.7969-12.0312L32.8281-11.125C32.8281-10.6458 32.7057-10.276 32.4609-10.0156 32.2161-9.75521 31.8958-9.625 31.5-9.625 31.1146-9.625 30.7995-9.76042 30.5547-10.0312 30.3099-10.3021 30.1875-10.6719 30.1875-11.1406 30.1875-12.0365 30.6458-12.8594 31.5625-13.6094 32.4792-14.3594 33.7656-14.7344 35.4219-14.7344 36.6927-14.7344 37.7344-14.5208 38.5469-14.0938 39.1615-13.7708 39.6146-13.2656 39.9062-12.5781 40.0938-12.1302 40.1875-11.2135 40.1875-9.82812L40.1875-4.96875C40.1875-3.60417 40.2135-2.76823 40.2656-2.46094 40.3177-2.15365 40.4036-1.94792 40.5234-1.84375 40.6432-1.73958 40.7812-1.6875 40.9375-1.6875 41.1042-1.6875 41.25-1.72396 41.375-1.79688 41.5938-1.93229 42.0156-2.3125 42.6406-2.9375L42.6406-2.0625C41.474-0.5 40.3594 0.28125 39.2969 0.28125 38.7865 0.28125 38.3802 0.104167 38.0781-0.25 37.776-0.604167 37.6198-1.20833 37.6094-2.0625ZM37.6094-3.07812 37.6094-8.53125C36.0365-7.90625 35.0208-7.46354 34.5625-7.20312 33.7396-6.74479 33.151-6.26562 32.7969-5.76562 32.4427-5.26562 32.2656-4.71875 32.2656-4.125 32.2656-3.375 32.4896-2.7526 32.9375-2.25781 33.3854-1.76302 33.901-1.51562 34.4844-1.51562 35.276-1.51562 36.3177-2.03646 37.6094-3.07812ZM55.8229-5.4375C55.4375-3.55208 54.6823-2.10156 53.5573-1.08594 52.4323-0.0703125 51.1875 0.4375 49.8229 0.4375 48.1979 0.4375 46.7812-0.244792 45.5729-1.60938 44.3646-2.97396 43.7604-4.81771 43.7604-7.14062 43.7604-9.39062 44.4297-11.2188 45.7682-12.625 47.1068-14.0312 48.7135-14.7344 50.5885-14.7344 51.9948-14.7344 53.151-14.362 54.0573-13.6172 54.9635-12.8724 55.4167-12.099 55.4167-11.2969 55.4167-10.901 55.2891-10.5807 55.0339-10.3359 54.7786-10.0911 54.4219-9.96875 53.9635-9.96875 53.349-9.96875 52.8854-10.1667 52.5729-10.5625 52.3958-10.7812 52.2786-11.1979 52.2214-11.8125 52.1641-12.4271 51.9531-12.8958 51.5885-13.2188 51.224-13.5312 50.7188-13.6875 50.0729-13.6875 49.0312-13.6875 48.1927-13.3021 47.5573-12.5312 46.7135-11.5104 46.2917-10.1615 46.2917-8.48438 46.2917-6.77604 46.7109-5.26823 47.5495-3.96094 48.388-2.65365 49.5208-2 50.9479-2 51.9688-2 52.8854-2.34896 53.6979-3.04688 54.2708-3.52604 54.8281-4.39583 55.3698-5.65625ZM60.2396-8.92188C60.2292-6.79688 60.7448-5.13021 61.7865-3.92188 62.8281-2.71354 64.0521-2.10938 65.4583-2.10938 66.3958-2.10938 67.2109-2.36719 67.9036-2.88281 68.5964-3.39844 69.1771-4.28125 69.6458-5.53125L70.1302-5.21875C69.9115-3.79167 69.276-2.49219 68.224-1.32031 67.1719-0.148438 65.8542 0.4375 64.2708 0.4375 62.5521 0.4375 61.0807-0.231771 59.8568-1.57031 58.6328-2.90885 58.0208-4.70833 58.0208-6.96875 58.0208-9.41667 58.6484-11.3255 59.9036-12.6953 61.1589-14.0651 62.7344-14.75 64.6302-14.75 66.2344-14.75 67.5521-14.2214 68.5833-13.1641 69.6146-12.1068 70.1302-10.6927 70.1302-8.92188ZM60.2396-9.82812 66.8646-9.82812C66.8125-10.7448 66.7031-11.3906 66.5365-11.7656 66.276-12.349 65.888-12.8073 65.3724-13.1406 64.8568-13.474 64.3177-13.6406 63.7552-13.6406 62.8906-13.6406 62.1172-13.3047 61.4349-12.6328 60.7526-11.9609 60.3542-11.026 60.2396-9.82812ZM76.1875-14.7344 76.1875-11.5156C77.3854-13.6615 78.6146-14.7344 79.875-14.7344 80.4479-14.7344 80.9219-14.5599 81.2969-14.2109 81.6719-13.862 81.8594-13.4583 81.8594-13 81.8594-12.5938 81.724-12.25 81.4531-11.9688 81.1823-11.6875 80.8594-11.5469 80.4844-11.5469 80.1198-11.5469 79.7109-11.7266 79.2578-12.0859 78.8047-12.4453 78.4688-12.625 78.25-12.625 78.0625-12.625 77.8594-12.5208 77.6406-12.3125 77.1719-11.8854 76.6875-11.1823 76.1875-10.2031L76.1875-3.34375C76.1875-2.55208 76.2865-1.95312 76.4844-1.54688 76.6198-1.26562 76.8594-1.03125 77.2031-0.84375 77.5469-0.65625 78.0417-0.5625 78.6875-0.5625L78.6875 0 71.3594 0 71.3594-0.5625C72.0885-0.5625 72.6302-0.677083 72.9844-0.90625 73.2448-1.07292 73.4271-1.33854 73.5312-1.70312 73.5833-1.88021 73.6094-2.38542 73.6094-3.21875L73.6094-8.76562C73.6094-10.4323 73.5755-11.4245 73.5078-11.7422 73.4401-12.0599 73.3151-12.2917 73.1328-12.4375 72.9505-12.5833 72.724-12.6562 72.4531-12.6562 72.1302-12.6562 71.7656-12.5781 71.3594-12.4219L71.2031-12.9844 75.5312-14.7344Z" transform="translate(22.8686 44)"/></g></g><text font-family="Times New Roman,Times New Roman_MSFontService,Arial" font-weight="400" font-size="32" transform="translate(605.08 153)">spacer</text><path d="M0.67052-0.741892 17.8607 14.7946 16.5197 16.2784-0.67052 0.741892ZM18.8831 11.6749 22.1362 20.0066 13.519 17.61Z" transform="matrix(-1 0 0 1 417.136 156)"/><g clip-path="url(#clip8)" filter="url(#fx3)" transform="translate(356 107)"><g><path d="M10.25-14.7344 10.25-9.85938 9.73438-9.85938C9.33854-11.3906 8.83073-12.4323 8.21094-12.9844 7.59115-13.5365 6.80208-13.8125 5.84375-13.8125 5.11458-13.8125 4.52604-13.6198 4.07812-13.2344 3.63021-12.849 3.40625-12.4219 3.40625-11.9531 3.40625-11.3698 3.57292-10.8698 3.90625-10.4531 4.22917-10.026 4.88542-9.57292 5.875-9.09375L8.15625-7.98438C10.2708-6.95312 11.3281-5.59375 11.3281-3.90625 11.3281-2.60417 10.8359-1.55469 9.85156-0.757812 8.86719 0.0390625 7.76562 0.4375 6.54688 0.4375 5.67188 0.4375 4.67188 0.28125 3.54688-0.03125 3.20312-0.135417 2.92188-0.1875 2.70312-0.1875 2.46354-0.1875 2.27604-0.0520833 2.14062 0.21875L1.625 0.21875 1.625-4.89062 2.14062-4.89062C2.43229-3.43229 2.98958-2.33333 3.8125-1.59375 4.63542-0.854167 5.55729-0.484375 6.57812-0.484375 7.29688-0.484375 7.88281-0.695312 8.33594-1.11719 8.78906-1.53906 9.01562-2.04688 9.01562-2.64062 9.01562-3.35938 8.76302-3.96354 8.25781-4.45312 7.7526-4.94271 6.74479-5.5625 5.23438-6.3125 3.72396-7.0625 2.73438-7.73958 2.26562-8.34375 1.79688-8.9375 1.5625-9.6875 1.5625-10.5938 1.5625-11.7708 1.96615-12.7552 2.77344-13.5469 3.58073-14.3385 4.625-14.7344 5.90625-14.7344 6.46875-14.7344 7.15104-14.6146 7.95312-14.375 8.48438-14.2188 8.83854-14.1406 9.01562-14.1406 9.18229-14.1406 9.3125-14.1771 9.40625-14.25 9.5-14.3229 9.60938-14.4844 9.73438-14.7344ZM12.4688-12.8906 16.875-14.6719 17.4688-14.6719 17.4688-11.3281C18.2083-12.5885 18.9505-13.4714 19.6953-13.9766 20.4401-14.4818 21.224-14.7344 22.0469-14.7344 23.4844-14.7344 24.6823-14.1719 25.6406-13.0469 26.8177-11.6719 27.4062-9.88021 27.4062-7.67188 27.4062-5.20312 26.6979-3.16146 25.2812-1.54688 24.1146-0.223958 22.6458 0.4375 20.875 0.4375 20.1042 0.4375 19.4375 0.328125 18.875 0.109375 18.4583-0.046875 17.9896-0.359375 17.4688-0.828125L17.4688 3.53125C17.4688 4.51042 17.5286 5.13281 17.6484 5.39844 17.7682 5.66406 17.9766 5.875 18.2734 6.03125 18.5703 6.1875 19.1094 6.26562 19.8906 6.26562L19.8906 6.84375 12.3906 6.84375 12.3906 6.26562 12.7812 6.26562C13.3542 6.27604 13.8437 6.16667 14.25 5.9375 14.4479 5.82292 14.6016 5.63802 14.7109 5.38281 14.8203 5.1276 14.875 4.47917 14.875 3.4375L14.875-10.0938C14.875-11.0208 14.8333-11.6094 14.75-11.8594 14.6667-12.1094 14.5339-12.2969 14.3516-12.4219 14.1693-12.5469 13.9219-12.6094 13.6094-12.6094 13.3594-12.6094 13.0417-12.5365 12.6562-12.3906ZM17.4688-10.4062 17.4688-5.0625C17.4688-3.90625 17.5156-3.14583 17.6094-2.78125 17.7552-2.17708 18.112-1.64583 18.6797-1.1875 19.2474-0.729167 19.9635-0.5 20.8281-0.5 21.8698-0.5 22.7135-0.90625 23.3594-1.71875 24.2031-2.78125 24.625-4.27604 24.625-6.20312 24.625-8.39062 24.1458-10.0729 23.1875-11.25 22.5208-12.0625 21.7292-12.4687 20.8125-12.4688 20.3125-12.4687 19.8177-12.3437 19.3281-12.0938 18.9531-11.9062 18.3333-11.3438 17.4688-10.4062ZM37.6094-2.0625C36.1406-0.927083 35.2188-0.270833 34.8438-0.09375 34.2812 0.166667 33.6823 0.296875 33.0469 0.296875 32.0573 0.296875 31.2422-0.0416667 30.6016-0.71875 29.9609-1.39583 29.6406-2.28646 29.6406-3.39062 29.6406-4.08854 29.7969-4.69271 30.1094-5.20312 30.5365-5.91146 31.2786-6.57812 32.3359-7.20312 33.3932-7.82812 35.151-8.58854 37.6094-9.48438L37.6094-10.0469C37.6094-11.474 37.3828-12.4531 36.9297-12.9844 36.4766-13.5156 35.8177-13.7812 34.9531-13.7812 34.2969-13.7812 33.776-13.6042 33.3906-13.25 32.9948-12.8958 32.7969-12.4896 32.7969-12.0312L32.8281-11.125C32.8281-10.6458 32.7057-10.276 32.4609-10.0156 32.2161-9.75521 31.8958-9.625 31.5-9.625 31.1146-9.625 30.7995-9.76042 30.5547-10.0312 30.3099-10.3021 30.1875-10.6719 30.1875-11.1406 30.1875-12.0365 30.6458-12.8594 31.5625-13.6094 32.4792-14.3594 33.7656-14.7344 35.4219-14.7344 36.6927-14.7344 37.7344-14.5208 38.5469-14.0938 39.1615-13.7708 39.6146-13.2656 39.9062-12.5781 40.0938-12.1302 40.1875-11.2135 40.1875-9.82812L40.1875-4.96875C40.1875-3.60417 40.2135-2.76823 40.2656-2.46094 40.3177-2.15365 40.4036-1.94792 40.5234-1.84375 40.6432-1.73958 40.7812-1.6875 40.9375-1.6875 41.1042-1.6875 41.25-1.72396 41.375-1.79688 41.5938-1.93229 42.0156-2.3125 42.6406-2.9375L42.6406-2.0625C41.474-0.5 40.3594 0.28125 39.2969 0.28125 38.7865 0.28125 38.3802 0.104167 38.0781-0.25 37.776-0.604167 37.6198-1.20833 37.6094-2.0625ZM37.6094-3.07812 37.6094-8.53125C36.0365-7.90625 35.0208-7.46354 34.5625-7.20312 33.7396-6.74479 33.151-6.26562 32.7969-5.76562 32.4427-5.26562 32.2656-4.71875 32.2656-4.125 32.2656-3.375 32.4896-2.7526 32.9375-2.25781 33.3854-1.76302 33.901-1.51562 34.4844-1.51562 35.276-1.51562 36.3177-2.03646 37.6094-3.07812ZM55.8229-5.4375C55.4375-3.55208 54.6823-2.10156 53.5573-1.08594 52.4323-0.0703125 51.1875 0.4375 49.8229 0.4375 48.1979 0.4375 46.7812-0.244792 45.5729-1.60938 44.3646-2.97396 43.7604-4.81771 43.7604-7.14062 43.7604-9.39062 44.4297-11.2188 45.7682-12.625 47.1068-14.0312 48.7135-14.7344 50.5885-14.7344 51.9948-14.7344 53.151-14.362 54.0573-13.6172 54.9635-12.8724 55.4167-12.099 55.4167-11.2969 55.4167-10.901 55.2891-10.5807 55.0339-10.3359 54.7786-10.0911 54.4219-9.96875 53.9635-9.96875 53.349-9.96875 52.8854-10.1667 52.5729-10.5625 52.3958-10.7812 52.2786-11.1979 52.2214-11.8125 52.1641-12.4271 51.9531-12.8958 51.5885-13.2188 51.224-13.5312 50.7188-13.6875 50.0729-13.6875 49.0312-13.6875 48.1927-13.3021 47.5573-12.5312 46.7135-11.5104 46.2917-10.1615 46.2917-8.48438 46.2917-6.77604 46.7109-5.26823 47.5495-3.96094 48.388-2.65365 49.5208-2 50.9479-2 51.9688-2 52.8854-2.34896 53.6979-3.04688 54.2708-3.52604 54.8281-4.39583 55.3698-5.65625ZM60.2396-8.92188C60.2292-6.79688 60.7448-5.13021 61.7865-3.92188 62.8281-2.71354 64.0521-2.10938 65.4583-2.10938 66.3958-2.10938 67.2109-2.36719 67.9036-2.88281 68.5964-3.39844 69.1771-4.28125 69.6458-5.53125L70.1302-5.21875C69.9115-3.79167 69.276-2.49219 68.224-1.32031 67.1719-0.148438 65.8542 0.4375 64.2708 0.4375 62.5521 0.4375 61.0807-0.231771 59.8568-1.57031 58.6328-2.90885 58.0208-4.70833 58.0208-6.96875 58.0208-9.41667 58.6484-11.3255 59.9036-12.6953 61.1589-14.0651 62.7344-14.75 64.6302-14.75 66.2344-14.75 67.5521-14.2214 68.5833-13.1641 69.6146-12.1068 70.1302-10.6927 70.1302-8.92188ZM60.2396-9.82812 66.8646-9.82812C66.8125-10.7448 66.7031-11.3906 66.5365-11.7656 66.276-12.349 65.888-12.8073 65.3724-13.1406 64.8568-13.474 64.3177-13.6406 63.7552-13.6406 62.8906-13.6406 62.1172-13.3047 61.4349-12.6328 60.7526-11.9609 60.3542-11.026 60.2396-9.82812ZM76.1875-14.7344 76.1875-11.5156C77.3854-13.6615 78.6146-14.7344 79.875-14.7344 80.4479-14.7344 80.9219-14.5599 81.2969-14.2109 81.6719-13.862 81.8594-13.4583 81.8594-13 81.8594-12.5938 81.724-12.25 81.4531-11.9688 81.1823-11.6875 80.8594-11.5469 80.4844-11.5469 80.1198-11.5469 79.7109-11.7266 79.2578-12.0859 78.8047-12.4453 78.4688-12.625 78.25-12.625 78.0625-12.625 77.8594-12.5208 77.6406-12.3125 77.1719-11.8854 76.6875-11.1823 76.1875-10.2031L76.1875-3.34375C76.1875-2.55208 76.2865-1.95312 76.4844-1.54688 76.6198-1.26562 76.8594-1.03125 77.2031-0.84375 77.5469-0.65625 78.0417-0.5625 78.6875-0.5625L78.6875 0 71.3594 0 71.3594-0.5625C72.0885-0.5625 72.6302-0.677083 72.9844-0.90625 73.2448-1.07292 73.4271-1.33854 73.5312-1.70312 73.5833-1.88021 73.6094-2.38542 73.6094-3.21875L73.6094-8.76562C73.6094-10.4323 73.5755-11.4245 73.5078-11.7422 73.4401-12.0599 73.3151-12.2917 73.1328-12.4375 72.9505-12.5833 72.724-12.6562 72.4531-12.6562 72.1302-12.6562 71.7656-12.5781 71.3594-12.4219L71.2031-12.9844 75.5312-14.7344Z" transform="translate(22.8624 45)"/></g></g><text font-family="Times New Roman,Times New Roman_MSFontService,Arial" font-weight="400" font-size="32" transform="translate(378.074 151)">spacer</text><path d="M366 178C402.214 182.488 438.427 186.976 481.235 188.029 524.044 189.081 582.009 183.819 622.85 184.314 663.692 184.81 693.426 191 726.284 191 759.143 191 789.571 187.657 820 184.314" stroke="#0000FF" stroke-width="8" stroke-miterlimit="8" fill="none" fill-rule="evenodd"/></g></svg>