<svg width="499" height="757" xmlns="http://www.w3.org/2000/svg" xmlns:xlink="http://www.w3.org/1999/xlink" xml:space="preserve" overflow="hidden"><g transform="translate(-98 4)"><rect x="109" y="1" width="392" height="49" fill="#F2F2F2"/><text font-family="Times New Roman,Times New Roman_MSFontService,Arial" font-weight="700" font-size="32" transform="translate(130.301 37)">Equivalent Circuit Model</text><text font-family="Times New Roman,Times New Roman_MSFontService,Arial" font-weight="700" font-size="21" transform="translate(376.276 95)">Ball Probe </text><text font-family="Times New Roman,Times New Roman_MSFontService,Arial" font-weight="700" font-size="21" transform="translate(376.276 120)">(Top Electrode)</text><text font-family="Cambria Math,Cambria Math_MSFontService,Arial" font-weight="400" font-size="32" transform="translate(342.757 189)">𝑹</text><text font-family="Cambria Math,Cambria Math_MSFontService,Arial" font-weight="400" font-size="23" transform="translate(365.09 196)">𝒄𝒐𝒏𝒕𝒂𝒄𝒕</text><path d="M305.5 62.5001 305.5 113.267" stroke="#000000" stroke-width="5.33333" stroke-miterlimit="8" fill="none" fill-rule="evenodd"/><path d="M294 62C294 57.5817 298.925 54 305 54 311.075 54 316 57.5817 316 62 316 66.4183 311.075 70 305 70 298.925 70 294 66.4183 294 62Z" stroke="#000000" stroke-width="2" stroke-miterlimit="8" fill-rule="evenodd"/><path d="M0 0 21.3194 17.1583" stroke="#000000" stroke-width="5.33333" stroke-miterlimit="8" fill="none" fill-rule="evenodd" transform="matrix(-1 0 0 1 320.819 121.5)"/><path d="M0 0 19.8 11.8421" stroke="#000000" stroke-width="5.33333" stroke-miterlimit="8" fill="none" fill-rule="evenodd" transform="matrix(-1 0 0 1 322.3 151.5)"/><path d="M299.5 162.5 323.886 177.81" stroke="#000000" stroke-width="5.33333" stroke-miterlimit="8" fill="none" fill-rule="evenodd"/><path d="M302.5 139.5 324.612 151.779" stroke="#000000" stroke-width="5.33333" stroke-miterlimit="8" fill="none" fill-rule="evenodd"/><path d="M304.5 111.5 323.79 123.302" stroke="#000000" stroke-width="5.33333" stroke-miterlimit="8" fill="none" fill-rule="evenodd"/><path d="M0 0 16.2236 10.6824" stroke="#000000" stroke-width="5.33333" stroke-miterlimit="8" fill="none" fill-rule="evenodd" transform="matrix(-1 0 0 1 320.724 178.5)"/><path d="M305.5 186.5 305.693 232.714" stroke="#000000" stroke-width="5.33333" stroke-miterlimit="8" fill="none" fill-rule="evenodd"/><path d="M237.5 233.5 373.088 233.5" stroke="#000000" stroke-width="5.33333" stroke-miterlimit="8" fill="none" fill-rule="evenodd"/><path d="M239.5 231.5 239.5 288.48" stroke="#000000" stroke-width="5.33333" stroke-miterlimit="8" fill="none" fill-rule="evenodd"/><path d="M371.5 232.5 371.5 326.3" stroke="#000000" stroke-width="5.33333" stroke-miterlimit="8" fill="none" fill-rule="evenodd"/><path d="M0 0 17.827 13.0504" stroke="#000000" stroke-width="5.33333" stroke-miterlimit="8" fill="none" fill-rule="evenodd" transform="matrix(-1 0 0 1 256.327 300.5)"/><path d="M0 0 22.0722 14.9549" stroke="#000000" stroke-width="5.33333" stroke-miterlimit="8" fill="none" fill-rule="evenodd" transform="matrix(-1 0 0 1 258.572 324.5)"/><path d="M233.5 339.5 258.725 354.813" stroke="#000000" stroke-width="5.33333" stroke-miterlimit="8" fill="none" fill-rule="evenodd"/><path d="M235.5 313.5 259.752 326.107" stroke="#000000" stroke-width="5.33333" stroke-miterlimit="8" fill="none" fill-rule="evenodd"/><path d="M238.5 286.5 259.8 300.001" stroke="#000000" stroke-width="5.33333" stroke-miterlimit="8" fill="none" fill-rule="evenodd"/><path d="M0 0 17.827 12.744" stroke="#000000" stroke-width="5.33333" stroke-miterlimit="8" fill="none" fill-rule="evenodd" transform="matrix(-1 0 0 1 256.327 354.5)"/><path d="M348.5 325.5 391.375 325.5" stroke="#000000" stroke-width="5.33333" stroke-miterlimit="8" fill="none" fill-rule="evenodd"/><path d="M348.5 337.5 391.375 337.5" stroke="#000000" stroke-width="5.33333" stroke-miterlimit="8" fill="none" fill-rule="evenodd"/><path d="M370.5 338.5 370.5 432.3" stroke="#000000" stroke-width="5.33333" stroke-miterlimit="8" fill="none" fill-rule="evenodd"/><path d="M239.5 364.5 239.5 432.084" stroke="#000000" stroke-width="5.33333" stroke-miterlimit="8" fill="none" fill-rule="evenodd"/><path d="M239.5 429.5 371.168 429.5" stroke="#000000" stroke-width="5.33333" stroke-miterlimit="8" fill="none" fill-rule="evenodd"/><path d="M304.5 430.5 304.5 475.821" stroke="#000000" stroke-width="5.33333" stroke-miterlimit="8" fill="none" fill-rule="evenodd"/><text font-family="Cambria Math,Cambria Math_MSFontService,Arial" font-weight="400" font-size="32" transform="translate(173.223 332)">𝑹</text><text font-family="Cambria Math,Cambria Math_MSFontService,Arial" font-weight="400" font-size="23" transform="translate(195.556 339)">𝑺𝒊</text><text font-family="Cambria Math,Cambria Math_MSFontService,Arial" font-weight="400" font-size="32" transform="translate(410.169 342)">𝑪</text><text font-family="Cambria Math,Cambria Math_MSFontService,Arial" font-weight="400" font-size="23" transform="translate(430.169 349)">𝑺𝒊</text><path d="M236.5 476.5 372.088 476.5" stroke="#000000" stroke-width="5.33333" stroke-miterlimit="8" fill="none" fill-rule="evenodd"/><path d="M238.5 474.5 238.5 531.48" stroke="#000000" stroke-width="5.33333" stroke-miterlimit="8" fill="none" fill-rule="evenodd"/><path d="M369.5 475.5 369.5 569.3" stroke="#000000" stroke-width="5.33333" stroke-miterlimit="8" fill="none" fill-rule="evenodd"/><path d="M0 0 17.827 13.0504" stroke="#000000" stroke-width="5.33333" stroke-miterlimit="8" fill="none" fill-rule="evenodd" transform="matrix(-1 0 0 1 255.327 543.5)"/><path d="M0 0 22.0722 14.9549" stroke="#000000" stroke-width="5.33333" stroke-miterlimit="8" fill="none" fill-rule="evenodd" transform="matrix(-1 0 0 1 256.572 568.5)"/><path d="M231.5 583.5 256.725 598.813" stroke="#000000" stroke-width="5.33333" stroke-miterlimit="8" fill="none" fill-rule="evenodd"/><path d="M234.5 556.5 258.752 569.107" stroke="#000000" stroke-width="5.33333" stroke-miterlimit="8" fill="none" fill-rule="evenodd"/><path d="M237.5 530.5 258.8 544.001" stroke="#000000" stroke-width="5.33333" stroke-miterlimit="8" fill="none" fill-rule="evenodd"/><path d="M0 0 17.827 12.744" stroke="#000000" stroke-width="5.33333" stroke-miterlimit="8" fill="none" fill-rule="evenodd" transform="matrix(-1 0 0 1 255.327 597.5)"/><path d="M346.5 568.5 389.375 568.5" stroke="#000000" stroke-width="5.33333" stroke-miterlimit="8" fill="none" fill-rule="evenodd"/><path d="M346.5 580.5 389.375 580.5" stroke="#000000" stroke-width="5.33333" stroke-miterlimit="8" fill="none" fill-rule="evenodd"/><path d="M368.5 581.5 368.5 675.3" stroke="#000000" stroke-width="5.33333" stroke-miterlimit="8" fill="none" fill-rule="evenodd"/><path d="M237.5 607.5 237.5 675.084" stroke="#000000" stroke-width="5.33333" stroke-miterlimit="8" fill="none" fill-rule="evenodd"/><path d="M237.5 672.5 369.168 672.5" stroke="#000000" stroke-width="5.33333" stroke-miterlimit="8" fill="none" fill-rule="evenodd"/><path d="M302.5 673.5 302.5 726.459" stroke="#000000" stroke-width="5.33333" stroke-miterlimit="8" fill="none" fill-rule="evenodd"/><text font-family="Cambria Math,Cambria Math_MSFontService,Arial" font-weight="400" font-size="32" transform="translate(108.637 576)">𝑹</text><text font-family="Cambria Math,Cambria Math_MSFontService,Arial" font-weight="400" font-size="23" transform="translate(130.97 582)">𝒂𝒊𝒓</text><text font-family="Cambria Math,Cambria Math_MSFontService,Arial" font-weight="400" font-size="23" transform="translate(166.637 582)">_</text><text font-family="Cambria Math,Cambria Math_MSFontService,Arial" font-weight="400" font-size="23" transform="translate(175.303 582)">𝒈𝒂𝒑</text><text font-family="Cambria Math,Cambria Math_MSFontService,Arial" font-weight="400" font-size="32" transform="translate(401.712 585)">𝑪𝑷𝑬</text><text font-family="Cambria Math,Cambria Math_MSFontService,Arial" font-weight="400" font-size="23" transform="translate(464.712 592)">𝒂𝒊𝒓</text><text font-family="Cambria Math,Cambria Math_MSFontService,Arial" font-weight="400" font-size="23" transform="translate(500.378 592)">_</text><text font-family="Cambria Math,Cambria Math_MSFontService,Arial" font-weight="400" font-size="23" transform="translate(509.045 592)">𝒈𝒂𝒑</text><text font-family="Times New Roman,Times New Roman_MSFontService,Arial" font-weight="700" font-size="21" transform="translate(414.156 705)">Bottom Electrode </text><text font-family="Times New Roman,Times New Roman_MSFontService,Arial" font-weight="700" font-size="21" transform="translate(414.156 730)">(Chuck)</text><path d="M275.5 738.5 327.584 738.5" stroke="#000000" stroke-width="5.33333" stroke-miterlimit="8" fill="none" fill-rule="evenodd"/><path d="M258.5 726.5 345.238 726.5" stroke="#000000" stroke-width="5.33333" stroke-miterlimit="8" fill="none" fill-rule="evenodd"/><path d="M287.5 750.5 316.3 750.5" stroke="#000000" stroke-width="5.33333" stroke-miterlimit="8" fill="none" fill-rule="evenodd"/><path d="M366.118 101.188 328.853 74.6792 330.012 73.0495 367.277 99.5582ZM328.2 77.8967 324 70 332.838 71.3778Z"/><path d="M0.192088-0.981378 36.5983 6.14454 36.2142 8.1073-0.192088 0.981378ZM35.8661 2.94429 42.9488 8.40651 34.3294 10.7953Z" transform="matrix(-1 0 0 1 404.949 710)"/></g></svg>