<svg width="560" height="222" xmlns="http://www.w3.org/2000/svg" xmlns:xlink="http://www.w3.org/1999/xlink" xml:space="preserve" overflow="hidden"><defs><filter id="fx0" x="-10%" y="-10%" width="120%" height="120%" filterUnits="userSpaceOnUse" primitiveUnits="userSpaceOnUse"><feComponentTransfer color-interpolation-filters="sRGB"><feFuncR type="discrete" tableValues="0 0"/><feFuncG type="discrete" tableValues="0 0"/><feFuncB type="discrete" tableValues="0 0"/><feFuncA type="linear" slope="0.4" intercept="0"/></feComponentTransfer><feGaussianBlur stdDeviation="0.734936 0.734936"/></filter><filter id="fx1" x="-10%" y="-10%" width="120%" height="120%" filterUnits="userSpaceOnUse" primitiveUnits="userSpaceOnUse"><feComponentTransfer color-interpolation-filters="sRGB"><feFuncR type="discrete" tableValues="0 0"/><feFuncG type="discrete" tableValues="0 0"/><feFuncB type="discrete" tableValues="0 0"/><feFuncA type="linear" slope="0.4" intercept="0"/></feComponentTransfer><feGaussianBlur stdDeviation="0.669874 0.669874"/></filter><filter id="fx2" x="-10%" y="-10%" width="120%" height="120%" filterUnits="userSpaceOnUse" primitiveUnits="userSpaceOnUse"><feComponentTransfer color-interpolation-filters="sRGB"><feFuncR type="discrete" tableValues="0 0"/><feFuncG type="discrete" tableValues="0 0"/><feFuncB type="discrete" tableValues="0 0"/><feFuncA type="linear" slope="0.4" intercept="0"/></feComponentTransfer><feGaussianBlur stdDeviation="0.669874 0.669874"/></filter><clipPath id="clip3"><rect x="204" y="124" width="560" height="222"/></clipPath><clipPath id="clip4"><rect x="23" y="23" width="31" height="31"/></clipPath><clipPath id="clip5"><rect x="21" y="27" width="87" height="27"/></clipPath><clipPath id="clip6"><rect x="21" y="27" width="87" height="27"/></clipPath></defs><g clip-path="url(#clip3)" transform="translate(-204 -124)"><rect x="216" y="249" width="481" height="61" stroke="#BFBFBF" stroke-width="2" stroke-miterlimit="8" fill="#BFBFBF"/><path d="M456 239 456.834 309.781" stroke="#000000" stroke-width="2" stroke-miterlimit="8" stroke-dasharray="2 2" fill="none" fill-rule="evenodd"/><path d="M456 300 689.761 300 689.761 302 456 302ZM688.428 297 696.428 301 688.428 305Z"/><g clip-path="url(#clip4)" filter="url(#fx0)" transform="translate(677 261)"><g><path d="M25.0039 0 18.4639 0 10.1714-11.4541C9.55713-11.43 9.05729-11.418 8.67188-11.418 8.5153-11.418 8.34668-11.421 8.16602-11.427 7.98535-11.433 7.79867-11.4421 7.60596-11.4541L7.60596-4.33594C7.60596-2.79427 7.77458-1.83675 8.11182-1.46338 8.5695-0.933431 9.25602-0.668457 10.1714-0.668457L11.1289-0.668457 11.1289 0 0.632324 0 0.632324-0.668457 1.55371-0.668457C2.58952-0.668457 3.33024-1.0057 3.77588-1.68018 4.02881-2.05355 4.15527-2.9388 4.15527-4.33594L4.15527-20.1621C4.15527-21.7038 3.98665-22.6613 3.64941-23.0347 3.17969-23.5646 2.48112-23.8296 1.55371-23.8296L0.632324-23.8296 0.632324-24.498 9.55713-24.498C12.1587-24.498 14.0767-24.3083 15.3113-23.929 16.5458-23.5496 17.5937-22.851 18.4548-21.8333 19.316-20.8155 19.7466-19.6021 19.7466-18.1929 19.7466-16.6873 19.2558-15.3805 18.2742-14.2725 17.2926-13.1644 15.772-12.3815 13.7124-11.9238L18.771-4.896C19.9272-3.28206 20.9209-2.21012 21.752-1.68018 22.583-1.15023 23.667-0.812988 25.0039-0.668457ZM7.60596-12.5923C7.8348-12.5923 8.03353-12.5893 8.20215-12.5833 8.37077-12.5772 8.50928-12.5742 8.61768-12.5742 10.9543-12.5742 12.7157-13.0801 13.9021-14.0918 15.0885-15.1035 15.6816-16.3923 15.6816-17.958 15.6816-19.4876 15.2029-20.7312 14.2454-21.6887 13.2878-22.6462 12.0202-23.125 10.4424-23.125 9.74381-23.125 8.79834-23.0106 7.60596-22.7817Z" transform="translate(26.1002 51)"/></g></g><text font-family="Times New Roman,Times New Roman_MSFontService,Arial" font-weight="400" font-size="37" transform="translate(702.25 311)">R</text><path d="M217 217C240.119 222.779 263.238 228.558 290.933 230.391 318.627 232.224 355.715 226.565 383.165 228 410.616 229.434 426.598 239.079 455.634 239 484.67 238.92 527.859 228.398 557.383 227.522 586.907 226.645 609.843 234.775 632.779 233.739 655.716 232.703 675.358 227.003 695 221.304" stroke="#0000FF" stroke-width="8" stroke-miterlimit="8" fill="none" fill-rule="evenodd"/><path d="M668 233.144C668 234.88 674.492 236.288 682.5 236.288 690.508 236.288 697 234.88 697 233.144L697 243.856C697 245.592 690.508 247 682.5 247 674.492 247 668 245.592 668 243.856Z" fill="#D86ECC" fill-rule="evenodd"/><path d="M668 233.144C668 231.408 674.492 230 682.5 230 690.508 230 697 231.408 697 233.144 697 234.88 690.508 236.288 682.5 236.288 674.492 236.288 668 234.88 668 233.144Z" fill="#E8A8E0" fill-rule="evenodd"/><path d="M697 233.144C697 234.88 690.508 236.288 682.5 236.288 674.492 236.288 668 234.88 668 233.144 668 231.408 674.492 230 682.5 230 690.508 230 697 231.408 697 233.144L697 243.856C697 245.592 690.508 247 682.5 247 674.492 247 668 245.592 668 243.856L668 233.144" stroke="#D86ECC" stroke-width="2" stroke-miterlimit="8" fill="none" fill-rule="evenodd"/><path d="M216 230.959C216 232.593 222.268 233.918 230 233.918 237.732 233.918 244 232.593 244 230.959L244 241.041C244 242.675 237.732 244 230 244 222.268 244 216 242.675 216 241.041Z" fill="#D86ECC" fill-rule="evenodd"/><path d="M216 230.959C216 229.325 222.268 228 230 228 237.732 228 244 229.325 244 230.959 244 232.593 237.732 233.918 230 233.918 222.268 233.918 216 232.593 216 230.959Z" fill="#E8A8E0" fill-rule="evenodd"/><path d="M244 230.959C244 232.593 237.732 233.918 230 233.918 222.268 233.918 216 232.593 216 230.959 216 229.325 222.268 228 230 228 237.732 228 244 229.325 244 230.959L244 241.041C244 242.675 237.732 244 230 244 222.268 244 216 242.675 216 241.041L216 230.959" stroke="#D86ECC" stroke-width="2" stroke-miterlimit="8" fill="none" fill-rule="evenodd"/><path d="M217 238.168C221.878 240.42 226.756 242.671 241.585 241.31 256.415 239.949 286.073 229.896 305.976 230.001 325.878 230.105 341.488 241.414 361 241.938 380.512 242.462 405.683 233.037 423.049 233.142 440.415 233.247 444.902 242.566 465.195 242.566 485.488 242.566 519.634 232.933 544.805 233.142 569.976 233.352 590.854 242.88 616.219 243.823 641.585 244.765 669.293 241.781 697 238.797" stroke="#FF0000" stroke-width="8" stroke-linecap="square" stroke-miterlimit="8" stroke-dasharray="24 8" fill="none" fill-rule="evenodd"/><path d="M0.866727-0.498783 16.3112 26.3388 14.5777 27.3363-0.866727 0.498783ZM18.2463 23.6868 18.7697 32.6157 11.3125 27.6771Z" transform="matrix(-1 0 0 1 700.77 179)"/><g clip-path="url(#clip5)" filter="url(#fx1)" transform="translate(638 123)"><g><path d="M10.25-14.7344 10.25-9.85938 9.73438-9.85938C9.33854-11.3906 8.83073-12.4323 8.21094-12.9844 7.59115-13.5365 6.80208-13.8125 5.84375-13.8125 5.11458-13.8125 4.52604-13.6198 4.07812-13.2344 3.63021-12.849 3.40625-12.4219 3.40625-11.9531 3.40625-11.3698 3.57292-10.8698 3.90625-10.4531 4.22917-10.026 4.88542-9.57292 5.875-9.09375L8.15625-7.98438C10.2708-6.95312 11.3281-5.59375 11.3281-3.90625 11.3281-2.60417 10.8359-1.55469 9.85156-0.757812 8.86719 0.0390625 7.76562 0.4375 6.54688 0.4375 5.67188 0.4375 4.67188 0.28125 3.54688-0.03125 3.20312-0.135417 2.92188-0.1875 2.70312-0.1875 2.46354-0.1875 2.27604-0.0520833 2.14062 0.21875L1.625 0.21875 1.625-4.89062 2.14062-4.89062C2.43229-3.43229 2.98958-2.33333 3.8125-1.59375 4.63542-0.854167 5.55729-0.484375 6.57812-0.484375 7.29688-0.484375 7.88281-0.695312 8.33594-1.11719 8.78906-1.53906 9.01562-2.04688 9.01562-2.64062 9.01562-3.35938 8.76302-3.96354 8.25781-4.45312 7.7526-4.94271 6.74479-5.5625 5.23438-6.3125 3.72396-7.0625 2.73438-7.73958 2.26562-8.34375 1.79688-8.9375 1.5625-9.6875 1.5625-10.5938 1.5625-11.7708 1.96615-12.7552 2.77344-13.5469 3.58073-14.3385 4.625-14.7344 5.90625-14.7344 6.46875-14.7344 7.15104-14.6146 7.95312-14.375 8.48438-14.2188 8.83854-14.1406 9.01562-14.1406 9.18229-14.1406 9.3125-14.1771 9.40625-14.25 9.5-14.3229 9.60938-14.4844 9.73438-14.7344ZM12.4688-12.8906 16.875-14.6719 17.4688-14.6719 17.4688-11.3281C18.2083-12.5885 18.9505-13.4714 19.6953-13.9766 20.4401-14.4818 21.224-14.7344 22.0469-14.7344 23.4844-14.7344 24.6823-14.1719 25.6406-13.0469 26.8177-11.6719 27.4062-9.88021 27.4062-7.67188 27.4062-5.20312 26.6979-3.16146 25.2812-1.54688 24.1146-0.223958 22.6458 0.4375 20.875 0.4375 20.1042 0.4375 19.4375 0.328125 18.875 0.109375 18.4583-0.046875 17.9896-0.359375 17.4688-0.828125L17.4688 3.53125C17.4688 4.51042 17.5286 5.13281 17.6484 5.39844 17.7682 5.66406 17.9766 5.875 18.2734 6.03125 18.5703 6.1875 19.1094 6.26562 19.8906 6.26562L19.8906 6.84375 12.3906 6.84375 12.3906 6.26562 12.7812 6.26562C13.3542 6.27604 13.8437 6.16667 14.25 5.9375 14.4479 5.82292 14.6016 5.63802 14.7109 5.38281 14.8203 5.1276 14.875 4.47917 14.875 3.4375L14.875-10.0938C14.875-11.0208 14.8333-11.6094 14.75-11.8594 14.6667-12.1094 14.5339-12.2969 14.3516-12.4219 14.1693-12.5469 13.9219-12.6094 13.6094-12.6094 13.3594-12.6094 13.0417-12.5365 12.6562-12.3906ZM17.4688-10.4062 17.4688-5.0625C17.4688-3.90625 17.5156-3.14583 17.6094-2.78125 17.7552-2.17708 18.112-1.64583 18.6797-1.1875 19.2474-0.729167 19.9635-0.5 20.8281-0.5 21.8698-0.5 22.7135-0.90625 23.3594-1.71875 24.2031-2.78125 24.625-4.27604 24.625-6.20312 24.625-8.39062 24.1458-10.0729 23.1875-11.25 22.5208-12.0625 21.7292-12.4687 20.8125-12.4688 20.3125-12.4687 19.8177-12.3437 19.3281-12.0938 18.9531-11.9062 18.3333-11.3438 17.4688-10.4062ZM37.6094-2.0625C36.1406-0.927083 35.2188-0.270833 34.8438-0.09375 34.2812 0.166667 33.6823 0.296875 33.0469 0.296875 32.0573 0.296875 31.2422-0.0416667 30.6016-0.71875 29.9609-1.39583 29.6406-2.28646 29.6406-3.39062 29.6406-4.08854 29.7969-4.69271 30.1094-5.20312 30.5365-5.91146 31.2786-6.57812 32.3359-7.20312 33.3932-7.82812 35.151-8.58854 37.6094-9.48438L37.6094-10.0469C37.6094-11.474 37.3828-12.4531 36.9297-12.9844 36.4766-13.5156 35.8177-13.7812 34.9531-13.7812 34.2969-13.7812 33.776-13.6042 33.3906-13.25 32.9948-12.8958 32.7969-12.4896 32.7969-12.0312L32.8281-11.125C32.8281-10.6458 32.7057-10.276 32.4609-10.0156 32.2161-9.75521 31.8958-9.625 31.5-9.625 31.1146-9.625 30.7995-9.76042 30.5547-10.0312 30.3099-10.3021 30.1875-10.6719 30.1875-11.1406 30.1875-12.0365 30.6458-12.8594 31.5625-13.6094 32.4792-14.3594 33.7656-14.7344 35.4219-14.7344 36.6927-14.7344 37.7344-14.5208 38.5469-14.0938 39.1615-13.7708 39.6146-13.2656 39.9062-12.5781 40.0938-12.1302 40.1875-11.2135 40.1875-9.82812L40.1875-4.96875C40.1875-3.60417 40.2135-2.76823 40.2656-2.46094 40.3177-2.15365 40.4036-1.94792 40.5234-1.84375 40.6432-1.73958 40.7812-1.6875 40.9375-1.6875 41.1042-1.6875 41.25-1.72396 41.375-1.79688 41.5938-1.93229 42.0156-2.3125 42.6406-2.9375L42.6406-2.0625C41.474-0.5 40.3594 0.28125 39.2969 0.28125 38.7865 0.28125 38.3802 0.104167 38.0781-0.25 37.776-0.604167 37.6198-1.20833 37.6094-2.0625ZM37.6094-3.07812 37.6094-8.53125C36.0365-7.90625 35.0208-7.46354 34.5625-7.20312 33.7396-6.74479 33.151-6.26562 32.7969-5.76562 32.4427-5.26562 32.2656-4.71875 32.2656-4.125 32.2656-3.375 32.4896-2.7526 32.9375-2.25781 33.3854-1.76302 33.901-1.51562 34.4844-1.51562 35.276-1.51562 36.3177-2.03646 37.6094-3.07812ZM55.8229-5.4375C55.4375-3.55208 54.6823-2.10156 53.5573-1.08594 52.4323-0.0703125 51.1875 0.4375 49.8229 0.4375 48.1979 0.4375 46.7812-0.244792 45.5729-1.60938 44.3646-2.97396 43.7604-4.81771 43.7604-7.14062 43.7604-9.39062 44.4297-11.2188 45.7682-12.625 47.1068-14.0312 48.7135-14.7344 50.5885-14.7344 51.9948-14.7344 53.151-14.362 54.0573-13.6172 54.9635-12.8724 55.4167-12.099 55.4167-11.2969 55.4167-10.901 55.2891-10.5807 55.0339-10.3359 54.7786-10.0911 54.4219-9.96875 53.9635-9.96875 53.349-9.96875 52.8854-10.1667 52.5729-10.5625 52.3958-10.7812 52.2786-11.1979 52.2214-11.8125 52.1641-12.4271 51.9531-12.8958 51.5885-13.2188 51.224-13.5312 50.7188-13.6875 50.0729-13.6875 49.0312-13.6875 48.1927-13.3021 47.5573-12.5312 46.7135-11.5104 46.2917-10.1615 46.2917-8.48438 46.2917-6.77604 46.7109-5.26823 47.5495-3.96094 48.388-2.65365 49.5208-2 50.9479-2 51.9688-2 52.8854-2.34896 53.6979-3.04688 54.2708-3.52604 54.8281-4.39583 55.3698-5.65625ZM60.2396-8.92188C60.2292-6.79688 60.7448-5.13021 61.7865-3.92188 62.8281-2.71354 64.0521-2.10938 65.4583-2.10938 66.3958-2.10938 67.2109-2.36719 67.9036-2.88281 68.5964-3.39844 69.1771-4.28125 69.6458-5.53125L70.1302-5.21875C69.9115-3.79167 69.276-2.49219 68.224-1.32031 67.1719-0.148438 65.8542 0.4375 64.2708 0.4375 62.5521 0.4375 61.0807-0.231771 59.8568-1.57031 58.6328-2.90885 58.0208-4.70833 58.0208-6.96875 58.0208-9.41667 58.6484-11.3255 59.9036-12.6953 61.1589-14.0651 62.7344-14.75 64.6302-14.75 66.2344-14.75 67.5521-14.2214 68.5833-13.1641 69.6146-12.1068 70.1302-10.6927 70.1302-8.92188ZM60.2396-9.82812 66.8646-9.82812C66.8125-10.7448 66.7031-11.3906 66.5365-11.7656 66.276-12.349 65.888-12.8073 65.3724-13.1406 64.8568-13.474 64.3177-13.6406 63.7552-13.6406 62.8906-13.6406 62.1172-13.3047 61.4349-12.6328 60.7526-11.9609 60.3542-11.026 60.2396-9.82812ZM76.1875-14.7344 76.1875-11.5156C77.3854-13.6615 78.6146-14.7344 79.875-14.7344 80.4479-14.7344 80.9219-14.5599 81.2969-14.2109 81.6719-13.862 81.8594-13.4583 81.8594-13 81.8594-12.5938 81.724-12.25 81.4531-11.9688 81.1823-11.6875 80.8594-11.5469 80.4844-11.5469 80.1198-11.5469 79.7109-11.7266 79.2578-12.0859 78.8047-12.4453 78.4688-12.625 78.25-12.625 78.0625-12.625 77.8594-12.5208 77.6406-12.3125 77.1719-11.8854 76.6875-11.1823 76.1875-10.2031L76.1875-3.34375C76.1875-2.55208 76.2865-1.95312 76.4844-1.54688 76.6198-1.26562 76.8594-1.03125 77.2031-0.84375 77.5469-0.65625 78.0417-0.5625 78.6875-0.5625L78.6875 0 71.3594 0 71.3594-0.5625C72.0885-0.5625 72.6302-0.677083 72.9844-0.90625 73.2448-1.07292 73.4271-1.33854 73.5312-1.70312 73.5833-1.88021 73.6094-2.38542 73.6094-3.21875L73.6094-8.76562C73.6094-10.4323 73.5755-11.4245 73.5078-11.7422 73.4401-12.0599 73.3151-12.2917 73.1328-12.4375 72.9505-12.5833 72.724-12.6562 72.4531-12.6562 72.1302-12.6562 71.7656-12.5781 71.3594-12.4219L71.2031-12.9844 75.5312-14.7344Z" transform="translate(22.9727 44)"/></g></g><text font-family="Times New Roman,Times New Roman_MSFontService,Arial" font-weight="400" font-size="32" transform="translate(660.184 166)">spacer</text><path d="M0.866727-0.498783 16.3112 26.3388 14.5777 27.3363-0.866727 0.498783ZM18.2463 23.6868 18.7697 32.6157 11.3125 27.6771Z" transform="matrix(-1 0 0 1 265.77 186)"/><g clip-path="url(#clip6)" filter="url(#fx2)" transform="translate(203 130)"><g><path d="M10.25-14.7344 10.25-9.85938 9.73438-9.85938C9.33854-11.3906 8.83073-12.4323 8.21094-12.9844 7.59115-13.5365 6.80208-13.8125 5.84375-13.8125 5.11458-13.8125 4.52604-13.6198 4.07812-13.2344 3.63021-12.849 3.40625-12.4219 3.40625-11.9531 3.40625-11.3698 3.57292-10.8698 3.90625-10.4531 4.22917-10.026 4.88542-9.57292 5.875-9.09375L8.15625-7.98438C10.2708-6.95312 11.3281-5.59375 11.3281-3.90625 11.3281-2.60417 10.8359-1.55469 9.85156-0.757812 8.86719 0.0390625 7.76562 0.4375 6.54688 0.4375 5.67188 0.4375 4.67188 0.28125 3.54688-0.03125 3.20312-0.135417 2.92188-0.1875 2.70312-0.1875 2.46354-0.1875 2.27604-0.0520833 2.14062 0.21875L1.625 0.21875 1.625-4.89062 2.14062-4.89062C2.43229-3.43229 2.98958-2.33333 3.8125-1.59375 4.63542-0.854167 5.55729-0.484375 6.57812-0.484375 7.29688-0.484375 7.88281-0.695312 8.33594-1.11719 8.78906-1.53906 9.01562-2.04688 9.01562-2.64062 9.01562-3.35938 8.76302-3.96354 8.25781-4.45312 7.7526-4.94271 6.74479-5.5625 5.23438-6.3125 3.72396-7.0625 2.73438-7.73958 2.26562-8.34375 1.79688-8.9375 1.5625-9.6875 1.5625-10.5938 1.5625-11.7708 1.96615-12.7552 2.77344-13.5469 3.58073-14.3385 4.625-14.7344 5.90625-14.7344 6.46875-14.7344 7.15104-14.6146 7.95312-14.375 8.48438-14.2188 8.83854-14.1406 9.01562-14.1406 9.18229-14.1406 9.3125-14.1771 9.40625-14.25 9.5-14.3229 9.60938-14.4844 9.73438-14.7344ZM12.4688-12.8906 16.875-14.6719 17.4688-14.6719 17.4688-11.3281C18.2083-12.5885 18.9505-13.4714 19.6953-13.9766 20.4401-14.4818 21.224-14.7344 22.0469-14.7344 23.4844-14.7344 24.6823-14.1719 25.6406-13.0469 26.8177-11.6719 27.4062-9.88021 27.4062-7.67188 27.4062-5.20312 26.6979-3.16146 25.2812-1.54688 24.1146-0.223958 22.6458 0.4375 20.875 0.4375 20.1042 0.4375 19.4375 0.328125 18.875 0.109375 18.4583-0.046875 17.9896-0.359375 17.4688-0.828125L17.4688 3.53125C17.4688 4.51042 17.5286 5.13281 17.6484 5.39844 17.7682 5.66406 17.9766 5.875 18.2734 6.03125 18.5703 6.1875 19.1094 6.26562 19.8906 6.26562L19.8906 6.84375 12.3906 6.84375 12.3906 6.26562 12.7812 6.26562C13.3542 6.27604 13.8437 6.16667 14.25 5.9375 14.4479 5.82292 14.6016 5.63802 14.7109 5.38281 14.8203 5.1276 14.875 4.47917 14.875 3.4375L14.875-10.0938C14.875-11.0208 14.8333-11.6094 14.75-11.8594 14.6667-12.1094 14.5339-12.2969 14.3516-12.4219 14.1693-12.5469 13.9219-12.6094 13.6094-12.6094 13.3594-12.6094 13.0417-12.5365 12.6562-12.3906ZM17.4688-10.4062 17.4688-5.0625C17.4688-3.90625 17.5156-3.14583 17.6094-2.78125 17.7552-2.17708 18.112-1.64583 18.6797-1.1875 19.2474-0.729167 19.9635-0.5 20.8281-0.5 21.8698-0.5 22.7135-0.90625 23.3594-1.71875 24.2031-2.78125 24.625-4.27604 24.625-6.20312 24.625-8.39062 24.1458-10.0729 23.1875-11.25 22.5208-12.0625 21.7292-12.4687 20.8125-12.4688 20.3125-12.4687 19.8177-12.3437 19.3281-12.0938 18.9531-11.9062 18.3333-11.3438 17.4688-10.4062ZM37.6094-2.0625C36.1406-0.927083 35.2188-0.270833 34.8438-0.09375 34.2812 0.166667 33.6823 0.296875 33.0469 0.296875 32.0573 0.296875 31.2422-0.0416667 30.6016-0.71875 29.9609-1.39583 29.6406-2.28646 29.6406-3.39062 29.6406-4.08854 29.7969-4.69271 30.1094-5.20312 30.5365-5.91146 31.2786-6.57812 32.3359-7.20312 33.3932-7.82812 35.151-8.58854 37.6094-9.48438L37.6094-10.0469C37.6094-11.474 37.3828-12.4531 36.9297-12.9844 36.4766-13.5156 35.8177-13.7812 34.9531-13.7812 34.2969-13.7812 33.776-13.6042 33.3906-13.25 32.9948-12.8958 32.7969-12.4896 32.7969-12.0312L32.8281-11.125C32.8281-10.6458 32.7057-10.276 32.4609-10.0156 32.2161-9.75521 31.8958-9.625 31.5-9.625 31.1146-9.625 30.7995-9.76042 30.5547-10.0312 30.3099-10.3021 30.1875-10.6719 30.1875-11.1406 30.1875-12.0365 30.6458-12.8594 31.5625-13.6094 32.4792-14.3594 33.7656-14.7344 35.4219-14.7344 36.6927-14.7344 37.7344-14.5208 38.5469-14.0938 39.1615-13.7708 39.6146-13.2656 39.9062-12.5781 40.0938-12.1302 40.1875-11.2135 40.1875-9.82812L40.1875-4.96875C40.1875-3.60417 40.2135-2.76823 40.2656-2.46094 40.3177-2.15365 40.4036-1.94792 40.5234-1.84375 40.6432-1.73958 40.7812-1.6875 40.9375-1.6875 41.1042-1.6875 41.25-1.72396 41.375-1.79688 41.5938-1.93229 42.0156-2.3125 42.6406-2.9375L42.6406-2.0625C41.474-0.5 40.3594 0.28125 39.2969 0.28125 38.7865 0.28125 38.3802 0.104167 38.0781-0.25 37.776-0.604167 37.6198-1.20833 37.6094-2.0625ZM37.6094-3.07812 37.6094-8.53125C36.0365-7.90625 35.0208-7.46354 34.5625-7.20312 33.7396-6.74479 33.151-6.26562 32.7969-5.76562 32.4427-5.26562 32.2656-4.71875 32.2656-4.125 32.2656-3.375 32.4896-2.7526 32.9375-2.25781 33.3854-1.76302 33.901-1.51562 34.4844-1.51562 35.276-1.51562 36.3177-2.03646 37.6094-3.07812ZM55.8229-5.4375C55.4375-3.55208 54.6823-2.10156 53.5573-1.08594 52.4323-0.0703125 51.1875 0.4375 49.8229 0.4375 48.1979 0.4375 46.7812-0.244792 45.5729-1.60938 44.3646-2.97396 43.7604-4.81771 43.7604-7.14062 43.7604-9.39062 44.4297-11.2188 45.7682-12.625 47.1068-14.0312 48.7135-14.7344 50.5885-14.7344 51.9948-14.7344 53.151-14.362 54.0573-13.6172 54.9635-12.8724 55.4167-12.099 55.4167-11.2969 55.4167-10.901 55.2891-10.5807 55.0339-10.3359 54.7786-10.0911 54.4219-9.96875 53.9635-9.96875 53.349-9.96875 52.8854-10.1667 52.5729-10.5625 52.3958-10.7812 52.2786-11.1979 52.2214-11.8125 52.1641-12.4271 51.9531-12.8958 51.5885-13.2188 51.224-13.5312 50.7188-13.6875 50.0729-13.6875 49.0312-13.6875 48.1927-13.3021 47.5573-12.5312 46.7135-11.5104 46.2917-10.1615 46.2917-8.48438 46.2917-6.77604 46.7109-5.26823 47.5495-3.96094 48.388-2.65365 49.5208-2 50.9479-2 51.9688-2 52.8854-2.34896 53.6979-3.04688 54.2708-3.52604 54.8281-4.39583 55.3698-5.65625ZM60.2396-8.92188C60.2292-6.79688 60.7448-5.13021 61.7865-3.92188 62.8281-2.71354 64.0521-2.10938 65.4583-2.10938 66.3958-2.10938 67.2109-2.36719 67.9036-2.88281 68.5964-3.39844 69.1771-4.28125 69.6458-5.53125L70.1302-5.21875C69.9115-3.79167 69.276-2.49219 68.224-1.32031 67.1719-0.148438 65.8542 0.4375 64.2708 0.4375 62.5521 0.4375 61.0807-0.231771 59.8568-1.57031 58.6328-2.90885 58.0208-4.70833 58.0208-6.96875 58.0208-9.41667 58.6484-11.3255 59.9036-12.6953 61.1589-14.0651 62.7344-14.75 64.6302-14.75 66.2344-14.75 67.5521-14.2214 68.5833-13.1641 69.6146-12.1068 70.1302-10.6927 70.1302-8.92188ZM60.2396-9.82812 66.8646-9.82812C66.8125-10.7448 66.7031-11.3906 66.5365-11.7656 66.276-12.349 65.888-12.8073 65.3724-13.1406 64.8568-13.474 64.3177-13.6406 63.7552-13.6406 62.8906-13.6406 62.1172-13.3047 61.4349-12.6328 60.7526-11.9609 60.3542-11.026 60.2396-9.82812ZM76.1875-14.7344 76.1875-11.5156C77.3854-13.6615 78.6146-14.7344 79.875-14.7344 80.4479-14.7344 80.9219-14.5599 81.2969-14.2109 81.6719-13.862 81.8594-13.4583 81.8594-13 81.8594-12.5938 81.724-12.25 81.4531-11.9688 81.1823-11.6875 80.8594-11.5469 80.4844-11.5469 80.1198-11.5469 79.7109-11.7266 79.2578-12.0859 78.8047-12.4453 78.4688-12.625 78.25-12.625 78.0625-12.625 77.8594-12.5208 77.6406-12.3125 77.1719-11.8854 76.6875-11.1823 76.1875-10.2031L76.1875-3.34375C76.1875-2.55208 76.2865-1.95312 76.4844-1.54688 76.6198-1.26562 76.8594-1.03125 77.2031-0.84375 77.5469-0.65625 78.0417-0.5625 78.6875-0.5625L78.6875 0 71.3594 0 71.3594-0.5625C72.0885-0.5625 72.6302-0.677083 72.9844-0.90625 73.2448-1.07292 73.4271-1.33854 73.5312-1.70312 73.5833-1.88021 73.6094-2.38542 73.6094-3.21875L73.6094-8.76562C73.6094-10.4323 73.5755-11.4245 73.5078-11.7422 73.4401-12.0599 73.3151-12.2917 73.1328-12.4375 72.9505-12.5833 72.724-12.6562 72.4531-12.6562 72.1302-12.6562 71.7656-12.5781 71.3594-12.4219L71.2031-12.9844 75.5312-14.7344Z" transform="translate(22.7727 44)"/></g></g><text font-family="Times New Roman,Times New Roman_MSFontService,Arial" font-weight="400" font-size="32" transform="translate(224.984 173)">spacer</text></g></svg>